<svg width="64" height="17" viewBox="0 0 64 17" fill="none" xmlns="http://www.w3.org/2000/svg">
<path d="M1.872 16.08L4.03201 11.352H12.864L15.024 16.08H16.944L9.64801 -4.76837e-07H7.27201L4.89131e-06 16.08H1.872ZM7.488 3.72L8.35201 1.632H8.49601L9.38401 3.72L12.168 9.816H4.72801L7.488 3.72ZM25.0517 16.08L30.7157 4.224H28.8677L24.0917 14.4H23.9477L19.1477 4.224H17.2997L22.9637 16.08H25.0517ZM34.1021 2.712V-4.76837e-07H32.3981V2.712H34.1021ZM34.1021 16.08V4.224H32.3981V16.08H34.1021ZM42.7764 16.32C46.6644 16.32 49.2324 13.752 49.2324 10.152C49.2324 6.552 46.6644 3.984 42.7764 3.984C38.9124 3.984 36.3444 6.552 36.3444 10.152C36.3444 13.752 38.9124 16.32 42.7764 16.32ZM42.7764 14.784C39.5124 14.784 38.0244 13.032 38.0244 10.152C38.0244 7.296 39.5124 5.52 42.7764 5.52C46.0404 5.52 47.5524 7.296 47.5524 10.152C47.5524 13.032 46.0404 14.784 42.7764 14.784ZM53.2037 16.08V10.344C53.2037 7.296 54.7157 5.544 57.5957 5.544C60.3077 5.544 61.4837 6.96 61.4837 9.408V16.08H63.1877V9.168C63.1877 6.36 61.5317 3.984 58.1957 3.984C55.2437 3.984 53.5637 5.928 53.1557 7.944H53.0357V4.224H51.4997V16.08H53.2037Z" fill="#22202E"/>
</svg>
